<svg xmlns="http://www.w3.org/2000/svg" viewBox="0 0 156.196 94">
  <defs>
    <style>
      .cls-1 {
        fill: #ff001a;
      }

      .cls-2 {
        fill: #ff7f00;
      }

      .cls-3 {
        fill: #4d4d4d;
      }
    </style>
  </defs>
  <g id="behpardakht_logo" transform="translate(-179.825 -27)">
    <g id="Group_10986" data-name="Group 10986" transform="translate(179.933 26.964)">
      <g id="Group_10986-2" data-name="Group 10986" transform="translate(47.644 0.036)">
        <path id="Path_125" data-name="Path 125" class="cls-1" d="M526.6.059a21.008,21.008,0,0,1,2.508.029,1.13,1.13,0,0,1,.969,1.154c.014,2.907,0,5.814,0,8.721a1.2,1.2,0,0,1-1.254,1.268,19.688,19.688,0,0,0-12.739,5.244c-1.639,1.4-2.907,3.164-4.532,4.56a17.153,17.153,0,0,1-7.239,3.89c-3.719.983-7.6.827-11.4.827a1.188,1.188,0,0,1-1.168-1.268V16.091a1.317,1.317,0,0,1,1.168-1.482c1.568-.057,3.135.043,4.688-.057a21.221,21.221,0,0,0,12.326-5.971,31.852,31.852,0,0,1,10.189-7.04A19.186,19.186,0,0,1,526.6.059Z" transform="translate(-469.401 -0.036)"/>
        <path id="Path_126" data-name="Path 126" class="cls-1" d="M378.216,156.418a1.085,1.085,0,0,1,1.482.955c.014,2.665,0,5.315.014,7.98a3.542,3.542,0,0,1-1.1,2.608,16.051,16.051,0,0,1-6.584,3.648,26.825,26.825,0,0,1-7.524,1H336.863A1.84,1.84,0,0,1,335,170.768V163.23a1.8,1.8,0,0,1,.969-1.625,3.16,3.16,0,0,1,1.625-.214h24.368a39.316,39.316,0,0,0,4.845-.157,20.743,20.743,0,0,0,10.189-3.8A7.718,7.718,0,0,1,378.216,156.418Z" transform="translate(-334.995 -134.065)"/>
      </g>
      <g id="Group_10987" data-name="Group 10987" transform="translate(51.607 13.473)">
        <path id="Path_127" data-name="Path 127" class="cls-2" d="M686.393,94.481a5.619,5.619,0,1,1-3.776,3.021A5.638,5.638,0,0,1,686.393,94.481Z" transform="translate(-636.561 -94.329)"/>
        <path id="Path_128" data-name="Path 128" class="cls-2" d="M367.72,281.77a5.615,5.615,0,0,1,6.227,4.631,5.612,5.612,0,1,1-10.289-2.023A5.477,5.477,0,0,1,367.72,281.77Z" transform="translate(-362.805 -255.027)"/>
        <path id="Path_129" data-name="Path 129" class="cls-2" d="M457.669,281.77a5.723,5.723,0,0,1,3.577.755,5.625,5.625,0,1,1-3.577-.755Z" transform="translate(-439.928 -255.027)"/>
        <path id="Path_130" data-name="Path 130" class="cls-2" d="M547.739,281.763a5.7,5.7,0,0,1,3.833.912,5.61,5.61,0,1,1-3.833-.912Z" transform="translate(-517.173 -255.02)"/>
      </g>
      <g id="Group_10998" data-name="Group 10998" transform="translate(-0.108 59.804)">
        <g id="Group_10988" data-name="Group 10988" transform="translate(0.255 0.021)">
          <path id="Path_131" data-name="Path 131" class="cls-3" d="M29.543,421.039a3.168,3.168,0,0,1,2.836-1.439.771.771,0,0,1,.727.855c.014,3.563-.014,7.139.014,10.7.057.884.67,1.952,1.667,1.938h2.864a.782.782,0,0,0,.841-.8c.014-.955,0-1.91,0-2.864a3.669,3.669,0,0,1,.3-1.995,3.56,3.56,0,0,1,3.135-1.625H47.2a3.746,3.746,0,0,1,3.235,1.81,3.242,3.242,0,0,1,.4,1.667v3.42a3.285,3.285,0,0,1-2.266,2.95,5.825,5.825,0,0,1-1.924.2c-.912,0-1.81.014-2.708-.029a4,4,0,0,1-2.18-.926,3.075,3.075,0,0,1-1.938.926c-2.052.029-4.09,0-6.142.014a4.3,4.3,0,0,1-2.565-.884,4.179,4.179,0,0,1-1.425.656,26.659,26.659,0,0,1-5.116.228,4.283,4.283,0,0,1-2.608-.9,4.118,4.118,0,0,1-2.394.884c-4.845,0-9.69.014-14.535,0a3.434,3.434,0,0,1-3.349-3.42V426.7a.868.868,0,0,1,.926-.9,3.164,3.164,0,0,1,2.893,2.18c.228,1.3-.086,2.622.171,3.919a1.639,1.639,0,0,0,1.625,1.2c3.563.014,7.139,0,10.7,0a1.581,1.581,0,0,0,1.582-1.183c.271-1.468-.114-3.007.328-4.46a2.714,2.714,0,0,1,2.009-1.553c.442-.086.969-.242,1.354.1a1.039,1.039,0,0,1,.314.855c0,1.425,0,2.836-.014,4.261a6.538,6.538,0,0,1-.342,1.952c1.439-.014,2.879.043,4.318.014a1.919,1.919,0,0,0,1.667-1.938v-7.709A4.435,4.435,0,0,1,29.543,421.039ZM42.4,429.005c-.014,1.354,0,2.722,0,4.076,1.354,0,2.722.014,4.076,0a.428.428,0,0,0,.442-.513c0-1.2.014-2.394,0-3.591a.389.389,0,0,0-.413-.413q-1.8-.021-3.591,0A.423.423,0,0,0,42.4,429.005Z" transform="translate(-1.681 -419.6)"/>
        </g>
        <path id="Path_132" data-name="Path 132" class="cls-3" d="M420.581,419.671a.5.5,0,0,1,.712-.029c.584.527,1.1,1.126,1.681,1.639.542-.527,1.055-1.083,1.61-1.61a.518.518,0,0,1,.77,0c.542.513,1.054,1.055,1.582,1.567.242.2.456.584.2.855-.5.556-1.04,1.04-1.553,1.582-.214.228-.527.541-.869.328-.641-.527-1.168-1.154-1.767-1.724-.57.556-1.112,1.14-1.7,1.667a.51.51,0,0,1-.7-.057c-.584-.556-1.154-1.14-1.71-1.71a.54.54,0,0,1,0-.827C419.427,420.811,420,420.227,420.581,419.671Z" transform="translate(-358.977 -419.494)"/>
        <path id="Path_133" data-name="Path 133" class="cls-3" d="M564.528,419.491c.356-.142.613.185.841.4.484.513,1.012.983,1.482,1.511a.526.526,0,0,1-.071.784c-.57.57-1.126,1.154-1.71,1.7a.525.525,0,0,1-.784-.057c-.57-.57-1.154-1.14-1.71-1.724-.328-.3-.071-.727.214-.941C563.374,420.631,563.887,419.975,564.528,419.491Z" transform="translate(-482.261 -419.456)"/>
        <path id="Path_134" data-name="Path 134" class="cls-3" d="M654.541,419.744c.385-.043.841-.185,1.183.086a.8.8,0,0,1,.256.684v11.828a3.684,3.684,0,0,1-.527,2.394,3.312,3.312,0,0,1-2.693,1.154.743.743,0,0,1-.684-.841V422.637a3.031,3.031,0,0,1,.527-1.852A3.148,3.148,0,0,1,654.541,419.744Z" transform="translate(-559.135 -419.638)"/>
        <path id="Path_135" data-name="Path 135" class="cls-3" d="M50.12,420.161a.5.5,0,0,1,.713-.043c.584.527,1.112,1.126,1.7,1.653.613-.57,1.14-1.225,1.8-1.738.413-.171.7.257.969.5.485.527,1.055.983,1.482,1.553.157.371-.2.641-.413.884-.527.485-.983,1.026-1.525,1.5a.5.5,0,0,1-.7-.071c-.556-.513-1.069-1.083-1.625-1.61-.542.527-1.055,1.069-1.6,1.6a.524.524,0,0,1-.784.029c-.584-.556-1.154-1.14-1.724-1.71a.531.531,0,0,1,0-.827C48.98,421.286,49.536,420.716,50.12,420.161Z" transform="translate(-41.327 -419.912)"/>
        <path id="Path_136" data-name="Path 136" class="cls-3" d="M372.136,463.824a.566.566,0,0,1,.556-.627,4.078,4.078,0,0,1,2.28.755,2.586,2.586,0,0,1,1.04,2.009c.043.955,0,1.909,0,2.864a1.682,1.682,0,0,0,1.653,1.653c3.62.014,7.239,0,10.844,0a1.586,1.586,0,0,0,1.6-1.382c.142-1.325-.157-2.693.185-4a3.135,3.135,0,0,1,3.334-1.867c.613.214.356.969.413,1.454-.1,1.938.257,3.933-.385,5.8,3.947-.014,7.88,0,11.828-.014a.779.779,0,0,0,.812-.784c.029-.912,0-1.81.014-2.708-.014-.271.029-.6-.185-.784a1.337,1.337,0,0,0-.94-.228c-1.71.014-3.42,0-5.144,0-.271,0-.613,0-.77-.285a2.137,2.137,0,0,1,1.112-2.109,5.073,5.073,0,0,1,2.522-.356c1.368.014,2.75-.014,4.118.014a3.419,3.419,0,0,1,3.192,3.32v3.278a3.469,3.469,0,0,1-2.237,3.206,4.175,4.175,0,0,1-1.51.214c-3.52,0-7.025-.014-10.545-.014a5.264,5.264,0,0,1-2.85-.427c-.3-.143-.641-.485-.983-.257a4.086,4.086,0,0,1-2.009.684c-4.845.014-9.7,0-14.549,0a3.45,3.45,0,0,1-3.392-3.406C372.121,467.814,372.121,465.819,372.136,463.824Z" transform="translate(-319.082 -456.964)"/>
        <path id="Path_137" data-name="Path 137" class="cls-3" d="M695.406,463.335a8.866,8.866,0,0,1,2.209-.143c1.283.014,2.565-.014,3.848.014a3.359,3.359,0,0,1,2.978,2.209,6.438,6.438,0,0,1,.228,2.394c-.014.755.029,1.51-.014,2.266a3.444,3.444,0,0,1-3.32,3.135h-8.279c-.285,0-.7,0-.8-.328a2.135,2.135,0,0,1,1.126-2.052,4.484,4.484,0,0,1,2.252-.37c1.425,0,2.85.014,4.261,0a.832.832,0,0,0,.883-.784c.014-1,.014-2.009,0-3.021a.7.7,0,0,0-.741-.713c-1.909-.028-3.8,0-5.714-.014a.64.64,0,0,1-.6-.271A2.224,2.224,0,0,1,695.406,463.335Z" transform="translate(-593.588 -456.959)"/>
        <path id="Path_138" data-name="Path 138" class="cls-3" d="M793,464.12a3.466,3.466,0,0,1,2.608-1.012.713.713,0,0,1,.656.755c.029,1.653-.014,3.32.014,4.987a1.679,1.679,0,0,0,1.738,1.525c2.423.014,4.859,0,7.282,0a.83.83,0,0,0,.9-.684c.114-1.51-.114-3.05.128-4.546.328-1.482,2.009-2.166,3.392-2.038a.634.634,0,0,1,.413.741c-.014,2.009.014,4-.014,6.014a3.407,3.407,0,0,1-3.263,3.249c-2.522.014-5.03,0-7.552.014a8.05,8.05,0,0,1-3.035-.285V476.4a2.747,2.747,0,0,1-.712,1.938,3.478,3.478,0,0,1-2.522.912.745.745,0,0,1-.655-.841V466.13A2.874,2.874,0,0,1,793,464.12Z" transform="translate(-679.44 -456.875)"/>
        <g id="Group_10989" data-name="Group 10989" transform="translate(134.342 6.241)">
          <path id="Path_139" data-name="Path 139" class="cls-3" d="M942.915,465.4a3.387,3.387,0,0,1,3.064-2.137c1.81-.014,3.605,0,5.415,0a3.562,3.562,0,0,1,3.577,3.762c0,.912-.014,1.81,0,2.722a.8.8,0,0,0,.826.784c1.282.014,2.579,0,3.862,0a.856.856,0,0,0,.912-.67c.085-1.468-.086-2.95.085-4.4.256-1.553,1.981-2.308,3.42-2.18a.556.556,0,0,1,.4.6c.014,2,0,4,0,6a3.449,3.449,0,0,1-3.392,3.406H953.8a2.836,2.836,0,0,1-2.123-.969,3.453,3.453,0,0,1-1.14.727,7.939,7.939,0,0,1-2.722.256c-.727-.014-1.439.029-2.166-.028a3.454,3.454,0,0,1-2.993-3.092c-.043-.755-.014-1.525-.014-2.28A6.064,6.064,0,0,1,942.915,465.4Zm3.634,1.04c-.014,1.2,0,2.38,0,3.577a.436.436,0,0,0,.427.513c1.368.014,2.736,0,4.1,0v-3.947c.028-.242-.086-.57-.385-.57-1.2-.028-2.394,0-3.591-.014A.449.449,0,0,0,946.549,466.44Z" transform="translate(-942.635 -463.256)"/>
        </g>
        <path id="Path_140" data-name="Path 140" class="cls-3" d="M828.51,544.591a.5.5,0,0,1,.713.014c.57.527,1.083,1.111,1.667,1.625.542-.542,1.069-1.1,1.625-1.61a.516.516,0,0,1,.727-.029c.627.584,1.2,1.211,1.81,1.8.613-.6,1.211-1.24,1.853-1.824.285-.271.656-.043.869.2.542.584,1.169,1.112,1.682,1.739.228.371-.171.684-.4.926-.556.5-1.026,1.1-1.61,1.553-.328.171-.627-.128-.826-.342-.513-.513-1.026-1.026-1.539-1.553-.613.6-1.2,1.225-1.824,1.81a.5.5,0,0,1-.712-.028c-.556-.527-1.083-1.1-1.639-1.624-.556.542-1.083,1.111-1.653,1.639a.5.5,0,0,1-.727-.014c-.513-.47-.983-1-1.5-1.468-.171-.2-.427-.371-.427-.656s.257-.456.442-.655C827.512,545.6,828,545.075,828.51,544.591Z" transform="translate(-708.794 -526.63)"/>
        <path id="Path_141" data-name="Path 141" class="cls-3" d="M1038.385,544.56c.356-.157.627.185.841.4.485.513,1.012.983,1.482,1.51a.487.487,0,0,1-.014.712c-.527.57-1.1,1.1-1.639,1.639-.185.214-.527.4-.784.185-.556-.484-1.04-1.04-1.582-1.539-.214-.214-.542-.5-.4-.841a9.588,9.588,0,0,1,1.041-1.111A9.492,9.492,0,0,1,1038.385,544.56Z" transform="translate(-888.573 -526.699)"/>
        <g id="Group_10990" data-name="Group 10990" transform="translate(0 19.641)">
          <path id="Path_142" data-name="Path 142" class="cls-3" d="M-.079,557.3a2.223,2.223,0,0,1,2.451,1.81c.086.9.014,1.8.029,2.708.926-.727,2.123-.5,3.206-.527a4.079,4.079,0,0,1,1.938.242,2.237,2.237,0,0,1,1.169,2.08c-.014.8.029,1.61-.028,2.408A2.179,2.179,0,0,1,6.6,567.889c-1.325.014-2.665,0-3.99,0a3.144,3.144,0,0,1-1.5-.214,2.251,2.251,0,0,1-1.226-2.066C-.093,562.83-.093,560.066-.079,557.3Zm2.494,5.885c.014.855-.043,1.7.029,2.551.086.342.485.285.755.3.855-.014,1.71.014,2.579-.014a.412.412,0,0,0,.456-.428c.014-.67.014-1.325,0-1.995a.415.415,0,0,0-.456-.413C4.652,563.172,3.527,563.186,2.415,563.186Z" transform="translate(0.108 -557.285)"/>
        </g>
        <path id="Path_143" data-name="Path 143" class="cls-3" d="M145.4,557.363a2.211,2.211,0,0,1,2.423,1.539,15.313,15.313,0,0,1,.085,2.679,5.134,5.134,0,0,1,2.28-.256,3.455,3.455,0,0,1,1.325.143,2.183,2.183,0,0,1,1.368,2.023c.014,1.482,0,2.95.014,4.432H150.4V563.79c.014-.242-.057-.57-.356-.584-.713-.057-1.425,0-2.138-.014v4.745H145.4C145.4,564.4,145.414,560.883,145.4,557.363Z" transform="translate(-124.665 -537.692)"/>
        <g id="Group_10991" data-name="Group 10991" transform="translate(59.695 19.656)">
          <path id="Path_144" data-name="Path 144" class="cls-3" d="M425.131,557.391a2.414,2.414,0,0,1,1.667.47,2.237,2.237,0,0,1,.827,1.824v6.142a2.159,2.159,0,0,1-2.08,2.123c-1.582,0-3.149.014-4.731,0a2.177,2.177,0,0,1-1.995-2.28,18.838,18.838,0,0,1,.071-2.693,2.156,2.156,0,0,1,1.938-1.61c.955-.014,1.9-.014,2.85,0a2.7,2.7,0,0,1,1.454.527C425.131,560.4,425.116,558.9,425.131,557.391Zm-3.819,6.313q-.021.983,0,1.967a.4.4,0,0,0,.371.427c.855.043,1.71,0,2.565.014.3-.014.727.071.855-.285.071-.855.014-1.71.029-2.551-1.1,0-2.209-.014-3.306,0A.424.424,0,0,0,421.312,563.7Z" transform="translate(-418.804 -557.39)"/>
        </g>
        <path id="Path_145" data-name="Path 145" class="cls-3" d="M563.3,557.414a2.223,2.223,0,0,1,2.081.883,2.556,2.556,0,0,1,.427,1.7c0,1.268-.014,2.536,0,3.791a3.535,3.535,0,0,0,1.924-.313,3.776,3.776,0,0,0,1.468-2.081h2.195a3.932,3.932,0,0,1-1.354,2.536,2.324,2.324,0,0,1,1.3,1.767c.057.769.014,1.539.029,2.294h-2.508c-.014-.67.029-1.339-.014-2.009-.029-.3-.356-.356-.6-.342h-2.451v2.337H563.3Z" transform="translate(-483.014 -537.743)"/>
        <path id="Path_146" data-name="Path 146" class="cls-3" d="M630.043,557.357a2.3,2.3,0,0,1,2.081.9c.7.969.342,2.223.413,3.334a3.148,3.148,0,0,1,1.439-.256,11.632,11.632,0,0,1,1.867.057A2.179,2.179,0,0,1,637.5,563.5c.014,1.468,0,2.95,0,4.432H635v-4.147c.014-.228-.057-.527-.328-.57-.712-.057-1.439,0-2.166-.029v4.745H630C630.028,564.411,630.028,560.877,630.043,557.357Z" transform="translate(-540.209 -537.7)"/>
        <path id="Path_147" data-name="Path 147" class="cls-3" d="M935.914,557.377a2.357,2.357,0,0,1,1.753.542,2.306,2.306,0,0,1,.741,1.767v8.251H935.9C935.914,564.417,935.9,560.9,935.914,557.377Z" transform="translate(-802.518 -537.72)"/>
        <path id="Path_148" data-name="Path 148" class="cls-3" d="M963.762,557.394a2.413,2.413,0,0,1,1.767.57,2.314,2.314,0,0,1,.727,1.753v8.251h-2.494C963.762,564.433,963.748,560.914,963.762,557.394Z" transform="translate(-826.404 -537.737)"/>
        <path id="Path_149" data-name="Path 149" class="cls-3" d="M694.74,571.049a2.256,2.256,0,0,1,2,.784,3.228,3.228,0,0,1,.556,1.282c.328.029.655.014.983.014v1.838h-1.04c.029.826-.043,1.667.029,2.508.071.442.584.328.926.356v1.838a9.8,9.8,0,0,1-1.71-.057,2.228,2.228,0,0,1-1.71-1.924c-.057-.912-.014-1.824-.029-2.722H693.7V573.13h1.04Z" transform="translate(-594.832 -549.44)"/>
        <path id="Path_150" data-name="Path 150" class="cls-3" d="M1064.94,571.057a2.3,2.3,0,0,1,1.781.556,2.538,2.538,0,0,1,.741,1.525h1.012v1.838h-1.041c.029.855-.057,1.71.043,2.551.114.413.6.271.912.313v1.838a4.462,4.462,0,0,1-2.294-.3,2.169,2.169,0,0,1-1.126-1.682c-.057-.912,0-1.81-.029-2.722h-1.04v-1.838h1.04C1064.926,572.439,1064.926,571.755,1064.94,571.057Z" transform="translate(-912.278 -549.447)"/>
        <g id="Group_10992" data-name="Group 10992" transform="translate(10.269 23.661)">
          <path id="Path_151" data-name="Path 151" class="cls-3" d="M72.019,587.309A2.15,2.15,0,0,1,74.1,585.5h4.7a2.167,2.167,0,0,1,2.152,1.867,1.616,1.616,0,0,1-1.3,2.009c-1.382.029-2.765,0-4.133.014A1.8,1.8,0,0,1,74.47,589c.071.385-.171,1.04.328,1.2,1.425.071,2.864-.029,4.289.043a2.133,2.133,0,0,1,1.881,1.824h-6.74a2.15,2.15,0,0,1-1.9-.969,3.539,3.539,0,0,1-.37-2.166C71.99,588.392,71.947,587.85,72.019,587.309Zm2.451.926c1.3-.028,2.594.043,3.876-.028a1.028,1.028,0,0,0,.014-.955c-1.126-.1-2.28-.029-3.42-.043C74.384,587.195,74.484,587.85,74.47,588.235Z" transform="translate(-71.955 -585.499)"/>
        </g>
        <g id="Group_10993" data-name="Group 10993" transform="translate(33.454 23.651)">
          <path id="Path_152" data-name="Path 152" class="cls-3" d="M234.662,587.587a2.165,2.165,0,0,1,2.023-2.152c1.568-.014,3.149-.014,4.717,0a2.159,2.159,0,0,1,2.066,2.137c0,.855.028,1.71-.014,2.551a2.2,2.2,0,0,1-2.337,1.9c-1.325-.114-2.822.328-3.961-.542a23.018,23.018,0,0,1-.057,2.807,2.252,2.252,0,0,1-2.437,1.71C234.648,593.2,234.662,590.395,234.662,587.587Zm2.508.143c-.029.8,0,1.6-.014,2.394,1.126-.014,2.266.014,3.392,0a.387.387,0,0,0,.413-.37c.028-.684.028-1.368,0-2.038a.378.378,0,0,0-.413-.4c-.955-.014-1.91-.014-2.879,0A.407.407,0,0,0,237.17,587.73Z" transform="translate(-234.656 -585.425)"/>
        </g>
        <g id="Group_10994" data-name="Group 10994" transform="translate(43.733 23.661)">
          <path id="Path_153" data-name="Path 153" class="cls-3" d="M306.807,587.505a2.173,2.173,0,0,1,2.152-2.009h4.56a2.176,2.176,0,0,1,2.109,2.138c.014,1.468.014,2.95,0,4.417a2.351,2.351,0,0,1-2.052-.841,1.612,1.612,0,0,1-1.2.826c-.855.043-1.71,0-2.565.014a4.172,4.172,0,0,1-1.781-.2,2.2,2.2,0,0,1-1.24-2.052C306.807,589.03,306.779,588.261,306.807,587.505Zm2.494.3q-.021.983,0,1.966a.432.432,0,0,0,.5.428c1.112.014,2.223,0,3.32,0-.014-.8.014-1.61-.014-2.408a.416.416,0,0,0-.456-.442q-1.432-.021-2.864,0A.433.433,0,0,0,309.3,587.8Z" transform="translate(-306.792 -585.496)"/>
        </g>
        <path id="Path_154" data-name="Path 154" class="cls-3" d="M379.114,585.314a2.376,2.376,0,0,1,2.109.9,2.742,2.742,0,0,1,2.081-.912V587a2.3,2.3,0,0,0-1.682,2.052c-.028.955,0,1.9-.014,2.85H379.1C379.114,589.7,379.1,587.509,379.114,585.314Z" transform="translate(-325.063 -561.667)"/>
        <g id="Group_10995" data-name="Group 10995" transform="translate(69.966 23.661)">
          <path id="Path_155" data-name="Path 155" class="cls-3" d="M490.983,587.05a2.168,2.168,0,0,1,2.052-1.553h4.56a2.182,2.182,0,0,1,2.137,2.138c.014,1.468.014,2.95,0,4.417a2.351,2.351,0,0,1-2.052-.841,1.605,1.605,0,0,1-1.083.812c-.8.071-1.61.014-2.408.028a4.119,4.119,0,0,1-2.237-.313,2.3,2.3,0,0,1-1.055-2.109A14.158,14.158,0,0,1,490.983,587.05Zm2.423.741c-.014.67-.014,1.325,0,1.995a.414.414,0,0,0,.484.4c1.112.014,2.237,0,3.349,0-.014-.8.014-1.6,0-2.408a.418.418,0,0,0-.485-.442c-.955-.014-1.909-.014-2.85,0A.439.439,0,0,0,493.406,587.791Z" transform="translate(-490.881 -585.496)"/>
        </g>
        <path id="Path_156" data-name="Path 156" class="cls-3" d="M762.388,585.969c.028-.185-.057-.427.071-.584a2.363,2.363,0,0,1,1.853.641,2.468,2.468,0,0,1,1.439-.641c.755-.029,1.525-.014,2.28,0a2.338,2.338,0,0,1,1.439.641,2.45,2.45,0,0,1,1.425-.627c.755-.029,1.511-.014,2.266,0a2.146,2.146,0,0,1,1.824,1.2,3.105,3.105,0,0,1,.242,1.525v3.848h-2.494v-4.133c.029-.242-.086-.584-.385-.57-.755-.028-1.525,0-2.28-.014.028,1.568,0,3.149.014,4.717H767.59v-4.133c.014-.242-.071-.584-.371-.584-.77-.043-1.539,0-2.294-.014.029,1.567,0,3.135.014,4.717h-2.508C762.4,589.944,762.4,587.949,762.388,585.969Z" transform="translate(-653.73 -561.723)"/>
        <g id="Group_10996" data-name="Group 10996" transform="translate(122.938 23.659)">
          <path id="Path_157" data-name="Path 157" class="cls-3" d="M862.739,586.981a2.172,2.172,0,0,1,2.08-1.5h4.56a2.18,2.18,0,0,1,2.237,2.009,1.6,1.6,0,0,1-1.24,1.867c-1.382.057-2.75,0-4.132.028a1.755,1.755,0,0,1-1.126-.4c.071.385-.157.969.285,1.2,1.468.085,2.95-.029,4.417.057a2.162,2.162,0,0,1,1.81,1.824h-6.811a2.113,2.113,0,0,1-1.6-.684,2.59,2.59,0,0,1-.6-2.023A10.183,10.183,0,0,1,862.739,586.981Zm2.38,1.24c1.226,0,2.465.014,3.691,0,.242.029.328-.228.3-.413,0-.214.043-.641-.3-.613-1.1-.014-2.195-.029-3.292.014C865,587.252,865.147,587.865,865.118,588.221Z" transform="translate(-862.612 -585.483)"/>
        </g>
        <g id="Group_10997" data-name="Group 10997" transform="translate(141.316 23.661)">
          <path id="Path_158" data-name="Path 158" class="cls-3" d="M992.932,585.655a3.172,3.172,0,0,1,1.268-.157c1.382.014,2.764-.014,4.146.014a2.17,2.17,0,0,1,1.881,1.268,3.5,3.5,0,0,1,.2,1.582c0,1.225-.014,2.451,0,3.691a2.3,2.3,0,0,1-2.066-.826,1.586,1.586,0,0,1-1.3.826c-1.14.014-2.294.014-3.434,0a2.161,2.161,0,0,1-2.038-1.981c-.028-.812-.014-1.61-.014-2.408A2.194,2.194,0,0,1,992.932,585.655Zm1.154,2.123c-.014.67-.028,1.34,0,2.009a.389.389,0,0,0,.4.4c1.14.028,2.294,0,3.434.014-.014-.812.014-1.61-.014-2.423a.408.408,0,0,0-.413-.427c-1-.014-2.009-.014-3.007,0A.4.4,0,0,0,994.087,587.778Z" transform="translate(-991.575 -585.498)"/>
        </g>
      </g>
    </g>
  </g>
</svg>
