<?xml version="1.0" encoding="utf-8"?>
<!-- Generator: Adobe Illustrator 22.1.0, SVG Export Plug-In . SVG Version: 6.00 Build 0)  -->
<svg version="1.1" id="Layer_1" xmlns="http://www.w3.org/2000/svg" xmlns:xlink="http://www.w3.org/1999/xlink" x="0px" y="0px"
	 viewBox="0 0 150 100" style="enable-background:new 0 0 150 100;" xml:space="preserve">
<style type="text/css">
	.st0{fill:#1D93D1;}
</style>
<g id="XMLID_1120_">
	<g>
		<path class="st0" d="M37.5,90.5c0.2-0.3,0.4-0.7,0.6-1.1c0.1-0.4,0.2-0.7,0.3-0.9c0-0.2,0-0.2-0.1-0.2c0,0-0.1,0.1-0.3,0.4
			c-0.1,0.2-0.3,0.4-0.6,0.6c-0.2,0.2-0.6,0.4-1.2,0.6c-0.5,0.2-1.2,0.4-1.8,0.6c-0.7,0.2-1.4,0.3-2.1,0.3c-0.7,0.1-1.4,0.1-2,0.1
			c-1.7,0-2.9-0.2-3.7-0.6c-0.4-0.2-0.6-0.4-0.6-0.7c0-0.3,0-0.5-0.1-0.6c0-0.1-0.1-0.2-0.1-0.2c-0.1,0-0.1,0.1-0.2,0.1
			c0,0.1-0.1,0.3-0.1,0.6c-0.1,0.3-0.1,0.6-0.2,1c0,0.3-0.1,0.6-0.1,0.7c0,0.4,0.1,0.8,0.4,1c0.3,0.3,0.8,0.5,1.6,0.7
			c0.5,0.1,1.1,0.1,1.9,0.1c0.7,0,1.5,0,2.3-0.1c0.8-0.1,1.6-0.2,2.4-0.5c0.5-0.1,1-0.3,1.4-0.5c0.5-0.2,1-0.5,1.4-0.7
			C37.1,91,37.3,90.8,37.5,90.5z M41.5,87.4c-0.1,0-0.2,0.1-0.2,0.2c-0.1,0.2-0.2,0.5-0.4,0.9c-0.2,0.4-0.4,0.9-0.6,1.3
			c-0.2,0.4-0.4,0.7-0.6,1c-0.2,0.2-0.5,0.5-0.9,0.8c-0.4,0.3-0.8,0.5-1.1,0.7c-0.3,0.2-0.5,0.3-0.6,0.5c-0.1,0.1-0.1,0.1-0.1,0.2
			c0,0,0.1,0.1,0.1,0.1c0.1,0,0.2,0,0.5-0.1s0.6-0.1,1.1-0.3c0.4-0.1,0.8-0.3,1-0.4c0.2-0.2,0.4-0.4,0.5-0.7
			c0.2-0.3,0.4-0.7,0.6-1.3c0.2-0.6,0.4-1.1,0.5-1.6c0.1-0.5,0.2-0.8,0.2-1C41.7,87.5,41.6,87.5,41.5,87.4z M46,87.5
			c-0.2-0.1-0.5-0.2-0.9-0.2c-0.1,0-0.2,0-0.3,0c4.4-4.1,6.7-6.4,6.8-6.7c0.5-1.1,0.6-1.5,0.3-1.4c-0.3,0.5-1.7,1.9-4.2,4.3
			c-2.4,2.3-3.7,3.6-4.1,4c0-0.4,0.1-0.9,0.2-1.5c0.2-1.2,0.2-2,0.3-2.4c0-0.1,0-0.1-0.1-0.1c0,0-0.1,0-0.1,0.1
			c-0.3,0.9-0.6,1.5-0.7,1.8c-0.2,1.2-0.4,2.2-0.5,3.2c-0.1,1-0.2,1.7-0.2,2.3c0,0,0,0,0,0c0,0.7,0.1,1.3,0.4,1.7
			c0.2,0.4,0.6,0.6,1,0.6c0.3,0,0.6-0.1,0.8-0.3c0.3-0.2,0.5-0.4,0.7-0.7c0.3-0.4,0.5-1,0.8-1.6c0.2-0.6,0.3-1.2,0.3-1.8
			C46.6,88.1,46.4,87.7,46,87.5z M45.4,90.7c-0.2,0.2-0.6,0.2-0.9,0.2c-0.3,0-0.5-0.1-0.7-0.2c-0.2-0.2-0.3-0.4-0.3-0.6
			c0-0.2,0.1-0.4,0.4-0.6c0.3-0.2,0.5-0.2,0.8-0.2c0.3,0,0.5,0,0.8,0.2c0.3,0.2,0.4,0.4,0.4,0.6C45.8,90.3,45.7,90.5,45.4,90.7z
			 M30.3,87.9c0.1,0.1,0.2,0.1,0.2,0.1c0.2,0,0.5-0.4,0.9-1.1c0.2,0.1,0.3,0.3,0.5,0.5c0.2,0.2,0.3,0.3,0.4,0.3
			c0.1,0,0.3-0.2,0.5-0.5c0.3-0.4,0.4-0.7,0.4-0.9c0-0.2-0.1-0.5-0.4-0.7c-0.2-0.3-0.4-0.4-0.6-0.4c-0.1,0-0.2,0.2-0.3,0.4
			c-0.2,0.3-0.3,0.5-0.5,0.8c-0.1-0.2-0.3-0.4-0.5-0.6c-0.2-0.2-0.4-0.3-0.5-0.3c-0.1,0-0.2,0.3-0.5,0.8c-0.3,0.5-0.4,0.8-0.4,0.9
			c0,0,0.1,0.1,0.3,0.3C30,87.6,30.2,87.8,30.3,87.9z M52.3,86.8c0.2,0.2,0.4,0.3,0.5,0.4c0.1,0.1,0.2,0.1,0.2,0.1
			c0.2,0,0.5-0.4,0.9-1.1c0.2,0.1,0.3,0.3,0.5,0.5c0.2,0.2,0.3,0.3,0.4,0.3c0.1,0,0.3-0.2,0.5-0.5c0.3-0.4,0.4-0.7,0.4-0.9
			c0-0.2-0.1-0.5-0.4-0.7c-0.2-0.2-0.4-0.4-0.6-0.4c-0.1,0-0.2,0.1-0.3,0.4c-0.2,0.3-0.3,0.5-0.5,0.8c-0.1-0.2-0.3-0.4-0.5-0.6
			c-0.2-0.2-0.4-0.3-0.5-0.3c-0.1,0-0.2,0.3-0.5,0.8c-0.3,0.5-0.4,0.8-0.4,0.9C52,86.5,52.1,86.6,52.3,86.8z M69.3,83.5
			c-0.1,0.2-0.2,0.3-0.3,0.5c-0.1,0.2-0.2,0.4-0.3,0.6c-0.1,0.2-0.2,0.4-0.2,0.7c-0.1,0.2-0.1,0.4-0.1,0.7c0,0.4-0.1,0.9,0,1.6
			c0,0.7,0,1.2,0,1.6c0,0.4-0.1,0.8-0.2,1.2c-0.1,0.4-0.1,0.6-0.1,0.6c0,0.1,0,0.1,0,0.1c0,0,0.1,0,0.2-0.1c0.1-0.1,0.1-0.2,0.2-0.3
			c0.1-0.2,0.2-0.5,0.4-0.9c0.2-0.5,0.3-1,0.3-1.6c0-0.3,0.1-0.6,0.1-1c0-0.4,0-0.8,0-1.3c0-0.1,0-0.2,0-0.3c0-0.1,0-0.3,0-0.5
			c0-0.2,0-0.3,0-0.5c0-0.2,0-0.3,0-0.5c0-0.2,0-0.3,0-0.4c0-0.1,0-0.2,0-0.2c0-0.1,0-0.1-0.1-0.1C69.4,83.3,69.3,83.4,69.3,83.5z
			 M76.6,96.3c-0.1,0-0.2,0.2-0.5,0.7c-0.3,0.5-0.4,0.8-0.4,0.8c0,0.1,0,0.1,0.1,0.2c0.1,0.1,0.2,0.2,0.3,0.3
			c0.1,0.1,0.2,0.2,0.3,0.3c0.1,0.1,0.1,0.1,0.2,0.2c0.1,0,0.2-0.2,0.5-0.5c0.2-0.4,0.3-0.6,0.3-0.9c0-0.2-0.1-0.4-0.3-0.7
			C76.9,96.5,76.8,96.3,76.6,96.3z M79.3,86.6c-0.1,0.3-0.3,0.5-0.4,0.5c-0.1,0.1-0.3,0.2-0.5,0.3c-0.3,0.1-0.5,0.3-0.6,0.3
			c-0.3,0.2-0.5,0.4-0.7,0.6c-0.1,0.2-0.4,0.6-0.6,1.2c-0.3,0.6-0.4,1-0.5,1c-0.2,0.2-0.4,0.5-0.8,0.8c0,0-0.1,0.1-0.5,0.3
			c-0.5,0.3-0.8,0.5-1,0.6c-0.2,0.1-0.3,0.2-0.3,0.3c-0.2,0.1-0.2,0.2-0.2,0.3c0,0.1,0.2,0.1,0.3,0.1c0.2,0,0.5,0,0.9-0.1
			c0.3-0.1,0.6-0.1,0.8-0.2c0.4-0.2,0.8-0.5,1-1c0.1-0.3,0.3-0.8,0.5-1.3c0.1-0.3,0.3-0.6,0.4-0.7c0-0.1,0.1-0.1,0.3-0.2
			c0.1-0.1,0.5-0.3,1.1-0.6c0.4-0.2,0.8-0.9,1.2-2.2c0.1-0.2,0-0.4,0-0.4C79.5,86.2,79.4,86.3,79.3,86.6z M77.4,93.8
			c-0.1,0-0.2,0.2-0.4,0.5c-0.1,0.2-0.3,0.5-0.4,0.7c-0.1-0.2-0.2-0.4-0.5-0.6c-0.2-0.2-0.4-0.3-0.5-0.3c-0.1,0-0.2,0.3-0.5,0.8
			c-0.3,0.5-0.4,0.9-0.4,0.9c0,0,0.2,0.2,0.5,0.5c0.3,0.3,0.5,0.4,0.5,0.4c0.2,0,0.5-0.4,0.8-1.2c0.1,0.1,0.3,0.3,0.6,0.5
			c0.2,0.2,0.3,0.3,0.4,0.3c0.1,0,0.3-0.2,0.5-0.5c0.2-0.4,0.4-0.7,0.4-1c0-0.2-0.1-0.5-0.4-0.7C77.7,93.9,77.5,93.8,77.4,93.8z
			 M89,93.4c-0.1,0-0.2,0.1-0.3,0.4c-0.2,0.3-0.3,0.5-0.5,0.8c-0.1-0.2-0.3-0.4-0.5-0.6c-0.2-0.2-0.4-0.3-0.5-0.3
			c-0.1,0-0.2,0.3-0.5,0.8c-0.3,0.5-0.4,0.8-0.4,0.9c0,0,0.1,0.1,0.3,0.3c0.2,0.2,0.4,0.3,0.5,0.4c0.1,0.1,0.2,0.1,0.2,0.1
			c0.2,0,0.5-0.4,0.9-1.1c0.2,0.1,0.3,0.3,0.5,0.5c0.2,0.2,0.3,0.3,0.4,0.3c0.1,0,0.3-0.2,0.5-0.5c0.3-0.4,0.4-0.7,0.4-0.9
			c0-0.2-0.1-0.5-0.4-0.7C89.3,93.6,89.1,93.4,89,93.4z M73.5,89.1c0-0.9-0.4-1.6-1.3-2.2c-0.2-0.1-0.3-0.1-0.3,0.1
			c-0.3,0.7-0.6,1.3-0.8,1.7c-0.1,0.2,0,0.3,0.1,0.4c0.8,0.6,1.2,1.1,1.2,1.5c0,0.1-0.2,0.4-0.6,0.8c-0.4,0.4-0.9,0.8-1.4,1.2
			C70.1,92.8,70,92.9,70,93c0,0,0,0.1,0.1,0.1c0.1,0,0.1,0,0.3,0c0.8-0.2,1.5-0.6,1.9-1c0.3-0.3,0.5-0.6,0.8-1.1
			C73.3,90.3,73.5,89.8,73.5,89.1z M65.3,82.1c0.1,0,0.3-0.2,0.5-0.6c0.2-0.4,0.3-0.7,0.3-0.9c0-0.2-0.2-0.4-0.4-0.7
			c-0.3-0.3-0.5-0.4-0.6-0.3c-0.1,0-0.2,0.3-0.5,0.8c-0.3,0.5-0.4,0.8-0.4,1c0,0.1,0,0.2,0.1,0.2c0.1,0.1,0.3,0.2,0.5,0.4
			C65.1,82,65.2,82.1,65.3,82.1z M25.6,73.7c0,0,0.2-0.2,0.4-0.6c0.4,0,0.8-0.3,1.2-0.9c0.4-0.6,0.6-1.2,0.6-1.9
			c0-0.2,0-0.3-0.1-0.3c-0.1,0-0.1,0.1-0.2,0.4c-0.1,0.3-0.2,0.5-0.3,0.6c-0.1,0.2-0.3,0.3-0.4,0.3c-0.1,0-0.2,0-0.5-0.1
			c-0.1,0-0.1,0-0.2,0c-0.1,0-0.2,0.2-0.3,0.6c-0.2,0.4-0.3,0.6-0.5,0.6c-0.2,0-0.3,0-0.4,0c-0.1,0-0.3,0-0.4,0
			c-0.2,0.1-0.5,0.3-0.9,0.8c-0.3,0.3-0.8,0.5-1.4,0.5c-0.4,0-0.8-0.1-1-0.3c-0.3-0.2-0.5-0.4-0.6-0.7c-0.1-0.4-0.2-0.7-0.2-0.9
			c0-0.2,0-0.4,0-0.8c0,0,0,0,0,0c0,0,0,0,0,0c0-0.1,0-0.4,0.1-1c0.1-0.6,0.2-1.7,0.4-3.4c0.2-1.7,0.3-2.8,0.4-3.4
			c0-0.1,0-0.1-0.1-0.1c0,0-0.1,0-0.2,0.1c-0.5,1.2-0.8,2-0.9,2.5c-0.3,1.6-0.5,3.1-0.7,4.4c-0.2,1.4-0.2,2.4-0.2,3.1h0l0,0
			c0,0.9,0.2,1.6,0.4,2.2c0.3,0.6,0.8,0.9,1.5,0.9c0.6,0,1.2-0.4,1.7-1.1c0.5-0.7,0.9-1.1,1.1-1.2c0.2-0.1,0.3-0.1,0.5-0.1
			c0.1,0,0.3,0,0.5,0.1C25.2,74.2,25.4,74,25.6,73.7z M66.8,85.4c-0.2,0.1-0.3,0.1-0.5,0.1c-0.1,0-0.4-0.1-0.8-0.3
			c-0.4-0.2-0.8-0.2-1-0.2c-0.3,0-0.6,0.1-0.8,0.2c-0.2,0.1-0.4,0.3-0.5,0.6c-0.1,0.1-0.2,0.3-0.2,0.5c-0.1,0.2-0.1,0.3,0,0.3
			c0,0,0.1,0,0.2-0.1c0.1-0.2,0.2-0.4,0.4-0.5c0.1-0.1,0.3-0.2,0.5-0.2c0.1,0,0.3,0,0.4,0.1c0.1,0,0.1,0,0.2,0.1
			c0.1,0,0.1,0,0.2,0.1c0.2,0.1,0.3,0.1,0.4,0.2c0.1,0,0.2,0.1,0.3,0.2c-0.1,0.1-0.2,0.3-0.4,0.5c-0.1,0.1-0.4,0.4-1,0.9
			c-0.6,0.5-1.2,0.9-1.7,1.1c-0.6,0.2-0.9,0.3-1.1,0.3v0c-0.1,0-0.2,0-0.3,0c0-0.3,0-0.5-0.1-0.4c-0.1,0.1-0.4,0.4-0.9,0.7
			c-0.5,0.3-1,0.5-1.6,0.7c-0.6,0.2-1.1,0.3-1.7,0.4c-0.6,0.1-1.2,0.2-1.7,0.2c-0.6,0-1.1,0.1-1.6,0.1c-0.6,0-1.3,0-2.1-0.1
			c-0.8-0.1-1.5-0.2-1.9-0.4c-0.4-0.2-0.6-0.5-0.7-1c0-0.3-0.1-0.5-0.2-0.5c-0.1,0-0.2,0.3-0.2,0.8c-0.1,0.5-0.1,1-0.1,1.4
			c0,0.7,0.2,1.2,0.7,1.5c0.2,0.2,0.7,0.3,1.3,0.3c0.6,0.1,1.1,0.1,1.6,0.1c0.7,0,1.5,0,2.4-0.1c0.8-0.1,1.6-0.2,2.2-0.4
			c0.7-0.2,1.2-0.4,1.8-0.6c0.5-0.2,1.1-0.5,1.6-1c0.4-0.2,0.7-0.6,1.1-1.1l0.7,0.2c0,0,0,0,0,0l0.8,0.2c0.2,0,0.4,0,0.6-0.2
			c0.1-0.1,0.2-0.2,0.4-0.3c0.1-0.1,0.2-0.2,0.3-0.3l1.6-1.5c0.3-0.3,0.5-0.4,0.6-0.6c0.2-0.2,0.4-0.4,0.7-0.6l0.6-0.4
			c0.2-0.1,0.3-0.3,0.3-0.4c0-0.1,0.1-0.2,0.1-0.3c0-0.1,0-0.2,0.1-0.3c0.1-0.2,0-0.2,0-0.2C67.1,85.2,66.9,85.3,66.8,85.4z
			 M91.1,86.4c0.3,0,0.5-0.1,0.7-0.3c0.2-0.3,0.3-0.5,0.4-0.8c0.1-0.3,0.2-0.5,0.2-0.6c0-0.1,0-0.2,0-0.3c0-0.1,0-0.1-0.1-0.1
			c0,0-0.1,0.1-0.1,0.2C92,84.8,91.8,85,91.8,85c-0.1,0.1-0.4,0.1-0.7,0c-0.1,0-0.3,0.1-0.5,0.2c-0.2,0.1-0.4,0.3-0.6,0.7
			c-0.3,0.4-0.7,0.6-1.2,0.6c-0.3,0-0.6-0.1-0.9-0.3c-0.3-0.3-0.5-0.8-0.5-1.5c0-0.3,0.1-0.9,0.2-1.8c0-0.3,0.1-0.7,0.2-1.4
			c0-0.1,0.1-0.2,0-0.3c0,0-0.1,0-0.1,0c-0.2,0.3-0.4,0.7-0.5,1c-0.1,0.2-0.1,0.4-0.2,0.8c-0.1,0.3-0.1,0.6-0.2,0.9
			c-0.1,0.4-0.1,0.8-0.2,1.2l-0.1,1.1l0,0.1c0,0,0,0,0,0c0,0,0,0,0,0.1l0,0.3c0,0.2-0.1,0.4-0.3,0.7c-0.1,0.2-0.2,0.4-0.4,0.7
			l-0.3,0.5c-0.2,0.3-0.3,0.6-0.4,0.9c-0.1,0.3-0.2,0.6-0.2,0.8c0,0.3,0.3,0.6,0.8,0.9c0.5,0.2,0.7,0.4,0.7,0.5c0,0.6-0.3,1.2-1,1.7
			c-0.7,0.6-1.7,0.9-2.8,0.9c-0.6,0-1.1-0.1-1.5-0.4c-0.5-0.4-0.8-1-0.8-1.8c0-0.5,0.2-1.1,0.5-1.9c0.2-0.5,0.5-1.2,1-2.4
			c0.1-0.1,0.1-0.3,0.1-0.4c0-0.1,0-0.2-0.1-0.2c-0.1,0-0.1,0.1-0.2,0.3c-0.1,0.1-0.1,0.2-0.2,0.3c-0.1,0.1-0.1,0.3-0.2,0.4
			c-0.1,0.2-0.2,0.5-0.3,0.6c-0.1,0.2-0.1,0.3-0.2,0.3c-0.1,0.3-0.3,0.7-0.5,1.2c-0.2,0.4-0.4,1-0.5,1.6c-0.2,0.6-0.2,1.1-0.2,1.5
			c0,0.9,0.2,1.6,0.6,2.2c0.5,0.7,1.2,1,2,1c0.4,0,0.7-0.1,1.1-0.2c0.3-0.1,0.6-0.3,0.9-0.5c0.9-0.6,1.5-1.5,2-2.5
			c0.3-0.7,0.5-1.3,0.6-1.7c0.1-0.5,0.2-0.9,0.2-1.4c0-0.3,0-0.6-0.1-0.7c-0.1-0.1-0.2-0.3-0.3-0.4c-0.2-0.1-0.3-0.2-0.5-0.3
			c-0.2-0.1-0.2-0.2-0.2-0.3h0c0-0.1,0.2-0.4,0.4-0.8c0.1-0.1,0.2-0.2,0.2-0.3c0.1,0.1,0.1,0.3,0.2,0.4c0.3,0.4,0.7,0.7,1.2,0.7
			c0.5,0,1-0.3,1.4-1c0.4-0.7,0.7-1.1,1.1-1.2C90.7,86.3,90.9,86.3,91.1,86.4C91.1,86.4,91.1,86.4,91.1,86.4z M25.3,47.3
			c-0.9,0.9-1.7,1.7-2.5,2.4c-0.8,0.7-1.6,1.4-2.4,2c-0.8,0.7-1.5,1.3-2.2,1.8c-0.6,0.5-1.5,1.2-2.5,2c-1,0.8-1.8,1.5-2.2,1.9
			c-0.3,0.3-0.5,0.6-0.7,0.9c-0.2,0.5-0.4,0.9-0.5,1.2c0,0.1,0.2,0,0.4-0.2c0.1-0.1,0.3-0.2,0.4-0.3c0.1-0.1,0.3-0.2,0.4-0.3l2-1.6
			c0.4-0.3,0.8-0.6,1.2-0.9c0.4-0.3,0.8-0.6,1.1-0.8c0.3-0.3,0.9-0.7,1.7-1.3c0.8-0.6,1.5-1.3,2.3-1.9c0.7-0.6,1.4-1.2,2-1.9
			c0.7-0.7,1.3-1.4,1.9-2.1c0.6-0.7,1-1.5,1.3-2.4c0.1-0.2,0.1-0.4,0-0.3C26.8,45.8,26.2,46.4,25.3,47.3z M22.9,88.7
			c-0.2-0.3-0.5-0.5-0.8-0.8L22,88.1c0.2,0.1,0.3,0.3,0.4,0.5c0.1,0.2,0.2,0.4,0.3,0.6c0.1,0.2,0.2,0.5,0.2,0.7
			c0,0.3,0.1,0.5,0.1,0.8c0,0.4,0,0.7-0.1,1.1c-0.1,0.3-0.2,0.6-0.4,0.9c-0.2,0.3-0.3,0.5-0.6,0.7l0.1,0.1c0.3-0.2,0.6-0.5,0.8-0.8
			c0.2-0.3,0.4-0.6,0.5-1c0.1-0.3,0.1-0.7,0.1-1.1v0c0-0.4-0.1-0.8-0.1-1.1C23.3,89.3,23.1,89,22.9,88.7z M18.9,67
			c-0.1,0-0.2,0.2-0.4,0.5c-0.2,0.4-0.4,0.6-0.5,0.8c-0.1,0.1-0.4,0.3-0.8,0.4c-0.4,0.2-0.7,0.4-0.9,0.5c-0.4,0.3-0.7,0.6-0.9,0.8
			c-0.2,0.3-0.5,0.8-0.9,1.7c-0.4,0.9-0.6,1.4-0.7,1.4c-0.2,0.3-0.6,0.6-1.2,1c0,0-0.2,0.1-0.7,0.5c-0.6,0.4-1.1,0.7-1.3,0.9
			c-0.2,0.2-0.4,0.3-0.5,0.4c-0.2,0.2-0.3,0.3-0.3,0.4c0.1,0.1,0.2,0.2,0.5,0.2c0.3,0,0.7-0.1,1.2-0.2c0.5-0.1,0.9-0.2,1.2-0.3
			c0.6-0.3,1.1-0.8,1.4-1.4c0.2-0.4,0.4-1.1,0.8-1.9c0.2-0.4,0.4-0.8,0.6-1c0.1-0.1,0.2-0.2,0.4-0.3c0.2-0.1,0.7-0.4,1.5-0.8
			c0.6-0.3,1.1-1.3,1.6-3C19,67.2,19,67,18.9,67z M16.2,80.1c-0.1,0-0.3,0.3-0.7,1c-0.4,0.7-0.6,1.1-0.6,1.2c0,0.1,0.1,0.2,0.2,0.3
			c0.1,0.1,0.3,0.2,0.4,0.4c0.1,0.1,0.3,0.3,0.4,0.4c0.1,0.1,0.2,0.2,0.3,0.2c0.1,0,0.3-0.2,0.6-0.7c0.3-0.5,0.5-0.9,0.5-1.2
			c0-0.3-0.1-0.6-0.4-1C16.6,80.3,16.4,80.1,16.2,80.1z M1.9,71.1c-0.1,0-0.2,0.1-0.2,0.3c-0.2,0.8-0.4,1.9-0.5,3.1
			c0,0.7,0.2,1.2,0.6,1.5c0.5,0.4,1.3,0.6,2.5,0.6c1.3,0,2.4-0.3,3.3-0.8c0.6-0.3,1-0.7,1.5-1.1c0.5-0.5,1-1.3,1.5-2.2
			c0.5-0.9,0.9-2.2,1.2-3.8c0.2-1.2,0.3-2.3,0.3-3.3c0-0.4,0-1.2,0.1-2.5c0-0.4,0-0.9,0.1-1.4c0.1-0.6,0.1-0.9,0.1-1.1
			c0-0.2,0-0.4,0.1-0.5c0-0.2,0-0.2,0-0.3c0,0-0.1,0-0.2,0c-0.1,0.2-0.3,0.7-0.7,1.5c-0.3,0.7-0.5,1.2-0.7,1.5
			c0,0.1-0.1,0.5-0.1,1.1c0,0.3,0,1.4-0.1,3.1c0,1.5-0.1,2.5-0.2,3.2c-0.1,0.7-0.3,1.1-0.5,1.4c-0.5,0.8-1.2,1.3-2.2,1.7
			c-0.7,0.3-1.6,0.4-2.5,0.4c-0.3,0-0.7,0-1.2-0.1c-0.4-0.1-0.8-0.2-1.1-0.3c-0.7-0.3-1-0.8-1-1.5c0-0.1,0-0.3,0-0.4
			C2.1,71.2,2,71.1,1.9,71.1z M5.9,69.3H5.6c-0.2,0-0.2,0.1-0.2,0.2c0,0.3,0.2,0.4,0.5,0.4c0.5,0,0.8-0.1,1-0.4
			C7.1,69.2,7.1,69,7,68.8c-0.1-0.2-0.1-0.4-0.1-0.5C7,68.1,7.2,68,7.5,68c0.3,0,0.5-0.1,0.5-0.4c0-0.2-0.1-0.3-0.3-0.3
			c-0.3,0-0.6,0.1-0.8,0.3c-0.2,0.2-0.3,0.5-0.2,0.8c0.1,0.3,0.1,0.5-0.1,0.6C6.4,69.2,6.2,69.3,5.9,69.3z M23.4,60.4
			c-0.4,0.7-0.6,1.2-0.6,1.3c0,0.1,0.2,0.3,0.6,0.6c0.4,0.3,0.7,0.5,0.7,0.5c0.3,0,0.7-0.5,1.2-1.6c0.2,0.1,0.5,0.4,0.8,0.7
			c0.2,0.2,0.4,0.3,0.5,0.3c0.1,0,0.4-0.3,0.7-0.7c0.3-0.5,0.5-0.9,0.5-1.3c0-0.3-0.2-0.6-0.5-1c-0.3-0.3-0.6-0.5-0.8-0.5
			c-0.1,0-0.2,0.2-0.5,0.7c-0.2,0.3-0.4,0.6-0.6,1c-0.1-0.2-0.3-0.5-0.6-0.8c-0.3-0.3-0.5-0.4-0.7-0.4C24,59.3,23.8,59.7,23.4,60.4z
			 M18.1,79.4c0.3-0.5,0.5-1,0.5-1.3c0-0.3-0.2-0.6-0.5-1c-0.3-0.3-0.6-0.5-0.8-0.5c-0.1,0-0.2,0.2-0.5,0.7c-0.2,0.3-0.4,0.7-0.6,1
			c-0.1-0.2-0.3-0.5-0.6-0.8c-0.3-0.3-0.6-0.4-0.7-0.4c-0.1,0-0.3,0.4-0.7,1.2c-0.4,0.8-0.6,1.2-0.6,1.3c0,0.1,0.2,0.3,0.6,0.6
			c0.4,0.4,0.7,0.5,0.7,0.5c0.3,0,0.7-0.5,1.2-1.6c0.2,0.2,0.5,0.4,0.8,0.7c0.2,0.2,0.4,0.4,0.5,0.4C17.5,80.2,17.7,79.9,18.1,79.4z
			 M16.4,88.3c-0.1,0-0.1,0-0.2,0.1c0,0-0.1,0.1-0.1,0.3l-0.2,0.4c0,0,0,0.1,0.1,0.1c0.1,0,0.1,0.1,0.1,0.1c0,0,0,0.1-0.1,0.1
			c0,0-0.1,0.1-0.2,0.2c-0.1,0.1-0.2,0.2-0.3,0.3c-0.1,0.1-0.2,0.3-0.3,0.4c-0.1,0.1-0.2,0.3-0.2,0.5c-0.1,0.2-0.1,0.3-0.1,0.4
			c0,0.1,0,0.2,0.1,0.3c0,0.1,0.1,0.1,0.2,0.2c0.2,0.1,0.3,0.2,0.4,0.2c0,0,0.1,0.1,0.1,0.1c0,0.1-0.1,0.3-0.2,0.5
			c-0.1,0.2-0.3,0.4-0.5,0.5c-0.2,0.1-0.3,0.2-0.5,0.2c-0.2,0-0.4,0.1-0.6,0.1c-0.3,0-0.6-0.1-0.7-0.3c-0.2-0.2-0.3-0.5-0.3-0.8
			c0-0.2,0-0.4,0.1-0.6c0-0.1,0.1-0.4,0.3-0.9c0.1-0.3,0.2-0.5,0.2-0.6c0-0.1,0-0.1,0-0.2c0,0-0.1,0.1-0.2,0.3
			c-0.1,0.1-0.1,0.3-0.2,0.4c-0.2,0.4-0.3,0.8-0.5,1.1c-0.1,0.4-0.2,0.8-0.2,1.1c0,0.5,0.1,0.9,0.3,1.1c0.2,0.3,0.5,0.4,0.8,0.4
			c0.7,0,1.3-0.3,1.7-1c0.2-0.3,0.3-0.6,0.5-1c0.1-0.4,0.2-0.7,0.2-1v-0.1c0-0.1,0-0.1,0-0.2c0-0.1-0.1-0.1-0.2-0.2
			c-0.1-0.1-0.2-0.1-0.3-0.2c-0.1-0.1-0.2-0.1-0.2-0.2c0-0.1,0-0.1,0.2-0.2c0.1-0.1,0.2-0.2,0.2-0.2c0.1-0.1,0.3-0.2,0.5-0.3
			c0.1,0,0.2-0.1,0.5-0.3c0.1-0.1,0.2-0.2,0.4-0.3c0.1-0.2,0.2-0.3,0.2-0.4c0-0.1-0.1-0.2-0.2-0.3C16.8,88.4,16.6,88.4,16.4,88.3z
			 M21.6,89.5c-0.1,0.2-0.2,0.3-0.2,0.3l-0.1,0c-0.1,0.1-0.1,0.1-0.1,0.2C21,90,21,90.1,20.9,90.1l-0.2,0c-0.1,0-0.3,0.1-0.5,0.4
			c-0.1,0.1-0.2,0.2-0.3,0.4c0,0,0,0,0,0c0-0.1-0.1-0.1-0.1-0.2c-0.1-0.1-0.2-0.2-0.4-0.2c-0.1,0-0.2,0-0.3,0.1
			c-0.1,0.1-0.1,0.1-0.2,0.2c-0.1,0.1-0.2,0.2-0.2,0.2c-0.1,0.1-0.2,0.1-0.4,0.1c-0.2,0-0.4-0.1-0.5-0.2c-0.1-0.2-0.1-0.4-0.1-0.6
			c0-0.1,0-0.2,0-0.4c0-0.2,0-0.4,0.1-0.6l0.2-1.2l0-0.3c0-0.1,0-0.1,0-0.2c0,0,0,0,0,0c-0.1,0.1-0.1,0.3-0.2,0.5
			c-0.1,0.2-0.1,0.4-0.2,0.4c0,0.3-0.1,0.8-0.2,1.4c-0.1,0.6-0.1,1-0.1,1c0,0.3,0.1,0.6,0.2,0.8c0.1,0.2,0.3,0.3,0.5,0.3
			c0.1,0,0.2,0,0.3-0.1c0.1,0,0.2-0.1,0.2-0.2c0.1-0.1,0.2-0.2,0.3-0.4c0.1-0.2,0.3-0.3,0.4-0.3c0.1,0,0.2,0,0.3,0.1
			c0.1,0.1,0.1,0.2,0.1,0.3l0,0.4c0,0.1,0,0.2,0,0.2c0,0,0,0.1,0.1,0.1c0,0,0.1-0.1,0.1-0.3c0.1-0.3,0.2-0.5,0.3-0.8
			c0-0.1,0.1-0.2,0.2-0.3c0.1-0.2,0.2-0.2,0.3-0.3c0,0,0.1,0,0.2,0c0.1,0,0.1,0,0.2,0c0,0,0.1-0.1,0.1-0.1c0.1-0.1,0.1-0.1,0.1-0.1
			c0.1-0.1,0.1-0.1,0.2-0.1c0.1,0,0.2-0.1,0.3-0.3c0.1-0.2,0.2-0.3,0.2-0.5v0c0,0,0,0,0-0.1C21.6,89.4,21.6,89.4,21.6,89.5z
			 M12.6,90.1c0-0.1,0.1-0.2,0.1-0.2c0,0,0,0,0-0.1c0,0-0.1,0-0.1,0c0,0-0.1,0-0.1,0c0,0-0.2,0-0.4-0.1c-0.1,0-0.2-0.1-0.2-0.1
			c-0.1,0-0.2,0.1-0.4,0.2c-0.1,0.1-0.2,0.2-0.3,0.4L10.7,91c-0.2,0-0.4-0.1-0.5-0.2c-0.1-0.1-0.2-0.3-0.2-0.6c0-0.1,0-0.2,0-0.4
			c0-0.2,0-0.4,0.1-0.6l0.2-1.2l0-0.3c0-0.1,0-0.1,0-0.2c0,0,0,0,0,0c-0.1,0.1-0.1,0.3-0.2,0.5c-0.1,0.2-0.2,0.4-0.2,0.4
			c0,0.3-0.1,0.8-0.2,1.4c-0.1,0.6-0.1,1-0.1,1c0,0.3,0.1,0.5,0.2,0.7c0.2,0.2,0.4,0.3,0.7,0.3c0.3,0,0.5-0.1,0.8-0.2
			c0.2-0.1,0.4-0.3,0.5-0.6c0,0,0.1-0.2,0.3-0.4c0.1-0.1,0.1-0.2,0.2-0.3c0,0,0.1-0.1,0.1-0.1c0-0.1,0.1-0.1,0.1-0.1
			C12.5,90.3,12.6,90.2,12.6,90.1z M11.6,90.8c-0.1,0.1-0.2,0.1-0.3,0.2c0,0-0.1,0-0.2,0.1l-0.3,0l0.4-0.6c0.1-0.1,0.1-0.2,0.2-0.2
			c0.1-0.1,0.2-0.1,0.3-0.1c0,0,0.1,0,0.2,0c0.1,0,0.2,0.1,0.2,0.1C12,90.5,11.8,90.7,11.6,90.8z M12,87.2
			C11.9,87.2,11.9,87.2,12,87.2c-0.1-0.1-0.1-0.1-0.1-0.1c0,0,0,0.1-0.1,0.1c-0.1,0.1-0.1,0.2-0.2,0.3c0,0.1-0.1,0.2-0.2,0.3
			c0,0,0,0.1-0.1,0.2c0,0,0,0.1,0.1,0.1c0,0,0.1,0.1,0.2,0.1c0,0,0.1,0.1,0.2,0.2c0.1,0.1,0.1,0.1,0.1,0.1c0,0,0.1,0,0.1-0.1
			c0.1-0.1,0.2-0.2,0.2-0.3c0-0.1,0.1-0.2,0.1-0.3c0-0.1,0-0.2,0-0.2c0-0.1,0-0.1-0.1-0.2C12.2,87.4,12.1,87.3,12,87.2z M2.3,88.8
			c0.2-0.3,0.3-0.5,0.6-0.7l-0.1-0.1c-0.3,0.2-0.6,0.5-0.8,0.8c-0.2,0.3-0.4,0.6-0.5,1c-0.1,0.4-0.1,0.7-0.1,1.1
			c0,0.4,0,0.8,0.1,1.1c0.1,0.4,0.2,0.7,0.5,1c0.2,0.3,0.5,0.5,0.8,0.8l0.1-0.1c-0.2-0.1-0.3-0.3-0.4-0.5c-0.1-0.2-0.2-0.4-0.3-0.6
			c-0.1-0.2-0.2-0.5-0.2-0.7c0-0.3-0.1-0.5-0.1-0.8c0-0.4,0-0.7,0.1-1.1C2.1,89.4,2.2,89.1,2.3,88.8z M9,88.4c-0.1,0-0.2,0-0.2,0.1
			c-0.1,0.1-0.2,0.2-0.3,0.3c-0.1,0.1-0.2,0.3-0.4,0.4c-0.1,0.2-0.2,0.3-0.3,0.5c-0.1,0-0.1,0-0.2,0c-0.1,0-0.1,0-0.2,0
			c-0.1,0-0.2,0.1-0.3,0.2c0,0.1-0.1,0.3-0.1,0.4c0,0.1,0,0.2,0,0.4c0,0.2,0,0.3,0,0.3c0,0.1,0,0.3-0.1,0.3c0,0.1,0,0.2-0.1,0.4
			c-0.1,0.2-0.2,0.5-0.3,0.6c-0.1,0.1-0.2,0.2-0.4,0.4C6.2,92.8,6,92.9,5.9,93c-0.1,0.1-0.3,0.1-0.4,0.2c-0.2,0-0.4,0.1-0.8,0.1
			c-0.3,0-0.6-0.1-0.8-0.2c-0.2-0.2-0.3-0.4-0.3-0.7c0-0.2,0-0.4,0.1-0.6c0-0.1,0.1-0.2,0.1-0.4l0.3-0.6c0-0.1,0.1-0.2,0.1-0.3
			c0-0.1,0-0.1,0-0.1c0,0,0,0-0.1,0.1c0,0,0,0.1-0.1,0.2c-0.1,0.2-0.2,0.3-0.3,0.5c0,0.1-0.1,0.2-0.2,0.4c-0.1,0.2-0.1,0.5-0.2,0.7
			c0,0.2-0.1,0.4-0.1,0.6c0,0.5,0.1,1,0.5,1.2c0.2,0.2,0.5,0.3,0.8,0.3c0.2,0,0.4,0,0.6-0.1c0.3-0.1,0.5-0.2,0.7-0.4
			c0.3-0.2,0.6-0.6,0.8-1c0.2-0.3,0.3-0.6,0.5-1.1c0.1-0.3,0.2-0.6,0.2-0.8c0-0.1,0.1-0.2,0.1-0.3c0-0.1,0-0.1,0-0.2
			c0-0.1,0-0.1,0.1-0.1l0.2,0c0.1,0,0.2,0,0.4-0.1c0.3-0.1,0.5-0.2,0.7-0.5c0.1-0.2,0.2-0.3,0.3-0.6c0.1-0.2,0.2-0.4,0.2-0.6
			c0-0.1,0-0.2-0.1-0.3C9.2,88.5,9.1,88.4,9,88.4z M8.9,89.3c-0.1,0.1-0.2,0.2-0.3,0.2c-0.1,0.1-0.2,0.1-0.3,0.1c-0.1,0-0.2,0-0.2,0
			c0,0,0-0.1,0.1-0.1c0.1-0.1,0.2-0.2,0.2-0.3c0.1-0.2,0.3-0.3,0.4-0.3c0.1,0,0.2,0,0.2,0.1c0.1,0,0.1,0.1,0.1,0.1
			C9.1,89.2,9,89.2,8.9,89.3z M24.3,58.5c0.2,0.1,0.4,0.3,0.6,0.5c0.3,0.3,0.5,0.4,0.5,0.4c0.1,0,0.3-0.3,0.6-0.8
			c0.3-0.5,0.4-1,0.4-1.3c0-0.3-0.2-0.7-0.5-1c-0.3-0.3-0.6-0.5-0.8-0.5c-0.1,0-0.3,0.4-0.7,1.1c-0.3,0.7-0.5,1.1-0.5,1.2
			C24.1,58.3,24.2,58.4,24.3,58.5z M52.4,32.1H41.4l-1.2,0.6h-8.8l-1.3-0.6H12.7c-2.5,0-2.3,1.8-2.3,1.8c0,1.6,2.2,1.6,2.2,1.6h20.7
			l0.3-0.5h2.9l0.4,0.4h15.3c3.7,0,6.8-0.6,6.8-0.6h90v-1.6H59.1C54.8,32,52.4,32.1,52.4,32.1z M57.7,41.3H25.8
			c-2.4-0.1-2.2,1.7-2.2,1.7c0.1,1.6,2.1,1.4,2.1,1.4h31.7c2.2,0,6.3-0.5,6.3-0.5H149v-1.7H64.1C60.6,41.6,57.7,41.3,57.7,41.3z
			 M43.1,36.7H17.5c-2.4-0.1-2.3,1.8-2.3,1.8c-0.1,1.8,1.9,1.6,1.9,1.6h25.8c2.9-0.1,6.1-0.7,6.1-0.7h100v-1.6H49.3
			C45.7,36.6,43.1,36.7,43.1,36.7z M67.7,50.4H51.8L49,50.9h-4.5l-2.1-0.5H31c-2.4-0.1-2.2,1.6-2.2,1.6c0,1.9,2,1.7,2,1.7h11.5
			l3-0.7h3.4l2.9,0.6h14.8c2.4,0,6-0.7,6-0.7H149v-1.7H72.5C69.6,50.4,67.7,50.4,67.7,50.4z M63.9,45.8H47l-1,0.6h-4.4L41,45.8h-9
			c-2.3-0.1-2.1,1.5-2.1,1.5c0,2,2.2,1.7,2.2,1.7h8.4l0.5-0.3h5.9l0.4,0.4h16.1c2.6,0.1,6.1-0.6,6.1-0.6H149v-1.7H69.7
			C65.8,45.9,63.9,45.8,63.9,45.8z M40.8,64c-1.8,0.1-1.7,1.3-1.7,1.3c0,2,2.2,1.6,2.2,1.6c0.8,0,2-0.7,2-0.7H149v-1.6H43.1
			C41.9,64,40.8,64,40.8,64z M68.9,54.9H58.3c-3.1,0-5.9,0.9-5.9,0.9h-3.6c-2.8-0.5-5.5-0.7-5.5-0.7H32c-2.2,0-2.1,1.6-2.1,1.6
			c0,1.7,2,1.5,2,1.5h11.2c1.8,0,6-0.9,6-0.9h3c2,0.8,5.9,0.9,5.9,0.9h9.7c2.2-0.1,6.4-0.6,6.4-0.6H149v-1.7H74.4
			C72.4,55.3,68.9,54.9,68.9,54.9z M69.2,59.6c-2.9-0.1-6.7,0.9-6.7,0.9H48.8l-6.1-1.1h-7.4c-2.3,0-2,1.7-2,1.7
			c0,1.7,2.1,1.5,1.9,1.5h7.1l6.2-1h14.1c3.1,1.1,6.3,1,6.3,1c2.2,0,6.1-0.8,6.1-0.8h74v-1.7H73.7C71.7,59.6,69.2,59.6,69.2,59.6z
			 M1,1.2v1.6h148V1.2H1z M70.7,5.2h-9.8c-2.1,0.1-4.7,0.7-4.7,0.7H1v1.6h55.1c1.9,0.6,4,0.8,4,0.8h10.7c2.3-0.1,4.9-0.7,4.9-0.7
			H149V5.9H75.3C73.7,5.5,70.7,5.2,70.7,5.2z M147.4,71.9c-0.8,0.7-1.3,1.3-1.7,1.6c-0.6,0.6-1.2,1.1-1.9,1.6
			c-1,0.8-1.9,1.5-2.7,2.2c-1.1,0.9-1.7,1.4-2,1.7c-0.2,0.2-0.3,0.4-0.5,0.7c-0.2,0.3-0.3,0.6-0.4,0.8c0,0.1,0.1,0,0.3-0.2
			c0.1-0.1,0.2-0.1,0.3-0.2c0.1-0.1,0.2-0.2,0.3-0.3l1.5-1.1c0.5-0.4,1.1-0.8,1.7-1.3c0.4-0.3,0.9-0.7,1.4-1.2
			c0.4-0.3,0.7-0.6,1-0.8c0.3-0.2,0.5-0.5,0.7-0.6c0.5-0.5,0.9-0.8,1.1-1c0.1-0.1,0.3-0.3,0.6-0.7c0.3-0.3,0.5-0.6,0.7-0.9
			c0.2-0.2,0.4-0.5,0.6-0.9c0.2-0.4,0.3-0.7,0.4-0.9c0-0.1,0-0.2,0-0.2C149,70.4,148.5,70.9,147.4,71.9z M70.4,9.7H50.9
			c-2.3,0-4.9,0.8-4.9,0.8H1V12h44.5c1.5,0.5,4.5,0.9,4.5,0.9h20.1c2.2,0,4.7-0.9,4.7-0.9H149v-1.4H74.2C72,9.9,70.4,9.7,70.4,9.7z
			 M69.1,14.3H44.8c-2.2,0.1-4.4,0.9-4.4,0.9H19.6c-2.1-0.6-4.2-0.9-4.2-0.9H3.4c-1.2,0-1.2,1.6-1.2,1.6c0,1.6,1.2,1.5,1.2,1.5h11.3
			c2.4-0.2,5-0.9,5-0.9h20.6c1.8,0.4,4.1,0.8,4.1,0.8h24.1c2.3-0.1,4.5-0.7,4.5-0.7h76v-1.6H73.2C70.7,14.3,69.1,14.3,69.1,14.3z
			 M95.2,75.5c0.5-0.5,0.9-0.8,1.1-1c0.1-0.1,0.3-0.3,0.6-0.7c0.3-0.3,0.5-0.6,0.7-0.9c0.2-0.2,0.4-0.5,0.6-0.9
			c0.2-0.4,0.4-0.7,0.4-0.9c0-0.1,0-0.1,0-0.2c0,0-0.5,0.5-1.6,1.6c-0.7,0.7-1.3,1.2-1.7,1.6c-0.6,0.6-1.2,1.1-1.9,1.6
			c-0.5,0.4-0.9,0.7-1.4,1.1c-0.4,0.4-0.9,0.7-1.4,1.1c-1,0.8-1.7,1.4-2,1.7c-0.2,0.2-0.3,0.4-0.5,0.7c-0.1,0.2-0.3,0.5-0.4,0.8
			c0,0,0.1,0,0.3-0.2c0.1-0.1,0.3-0.3,0.6-0.5l1.5-1.2c0.3-0.2,0.6-0.4,0.8-0.6c0.3-0.2,0.6-0.4,0.8-0.6c0.5-0.4,1-0.8,1.4-1.2
			C94.3,76.2,94.9,75.7,95.2,75.5z M64.3,23.4H39.5c-1.9-0.1-4.2,0.7-4.2,0.7h-4.5c-1.9-0.7-3.5-0.7-3.5-0.7h-21
			c-1.7,0-1.5,1.6-1.5,1.6c0,1.5,1.3,1.4,1.3,1.4h20.6c1.9,0.1,4.2-0.7,4.2-0.7h4.6c1.4,0.7,3.8,0.8,3.8,0.8h24.4
			c3,0,4.7-0.7,4.7-0.7H149v-1.5H68.6C65.6,23.3,64.3,23.4,64.3,23.4z M67.4,18.9H41.9c-2.7-0.1-4.5,0.7-4.5,0.7H26.6
			c-2.9-0.7-4.2-0.8-4.2-0.8H5.2c-1.6,0-1.5,1.5-1.5,1.5c0,1.6,1.3,1.4,1.3,1.4h16.7c2.5-0.2,4.3-0.7,4.3-0.7h11.1
			c1.5,0.6,4,0.9,4,0.9H67c2.1-0.1,4.1-0.8,4.1-0.8H149v-1.4H71.2C69,18.9,67.4,18.9,67.4,18.9z M60.8,28c0,0-19.8-0.1-21.6,0
			c-1.8,0.1-3.3,0.5-3.3,0.5h-2.9c-1-0.3-2.4-0.6-2.4-0.6H9.1c-2.2,0-1.9,1.6-1.9,1.6c0,1.5,1.7,1.5,1.7,1.5h21c1.1-0.1,3-0.5,3-0.5
			h3c1.2,0.5,2.7,0.6,2.7,0.6h21.6c1.9,0,4.6-0.7,4.6-0.7H149v-1.6H64.9C63.2,28.1,60.8,28,60.8,28z M125.4,75.3
			c0.2-0.2,0.4-0.5,0.6-0.9c0.2-0.4,0.3-0.7,0.4-0.9c0-0.1,0-0.1,0-0.2c0,0-0.5,0.6-1.6,1.6c-0.3,0.3-0.7,0.6-0.9,0.9
			c-0.3,0.3-0.5,0.5-0.7,0.7c-0.6,0.6-1.2,1.1-1.9,1.6c-0.5,0.4-0.9,0.7-1.4,1.1c-0.5,0.4-0.9,0.7-1.4,1.1c-1,0.8-1.6,1.4-2,1.7
			c-0.2,0.2-0.4,0.5-0.5,0.7c-0.1,0.2-0.3,0.5-0.4,0.8c0,0,0.1,0,0.3-0.2c0.1-0.1,0.2-0.1,0.3-0.2c0.1-0.1,0.2-0.2,0.3-0.2l1.5-1.1
			c0.3-0.2,0.6-0.4,0.8-0.6c0.3-0.2,0.6-0.4,0.9-0.7c0.5-0.4,1-0.8,1.4-1.2c0.4-0.3,0.7-0.6,1-0.8c0.3-0.2,0.5-0.5,0.7-0.6
			c0.5-0.5,0.9-0.8,1.1-1c0.1-0.1,0.3-0.3,0.6-0.7C124.9,75.9,125.2,75.6,125.4,75.3z M123.1,79.4c-0.3,0.5-0.4,0.8-0.4,0.9
			c0,0.1,0.1,0.1,0.2,0.2c0.1,0.1,0.3,0.2,0.5,0.4c0.2,0.2,0.4,0.3,0.4,0.3c0.1,0,0.3-0.2,0.5-0.6c0.2-0.4,0.3-0.7,0.3-0.9
			c0-0.2-0.1-0.5-0.4-0.8c-0.2-0.2-0.4-0.4-0.6-0.4C123.5,78.6,123.4,78.8,123.1,79.4z M99.4,80.8c0.1,0.1,0.2,0.1,0.2,0.1
			c0.2,0,0.5-0.4,0.9-1.1c0.2,0.1,0.3,0.3,0.5,0.5c0.2,0.2,0.3,0.3,0.4,0.3c0.1,0,0.3-0.2,0.5-0.5c0.3-0.4,0.4-0.7,0.4-0.9
			c0-0.2-0.1-0.5-0.4-0.7c-0.2-0.3-0.4-0.4-0.6-0.4c-0.1,0-0.2,0.2-0.3,0.4c-0.2,0.3-0.3,0.5-0.5,0.8c-0.1-0.2-0.3-0.4-0.5-0.6
			c-0.2-0.2-0.4-0.3-0.5-0.3c-0.1,0-0.2,0.3-0.5,0.8c-0.3,0.5-0.4,0.8-0.4,0.9c0,0,0.1,0.1,0.3,0.3C99.2,80.6,99.3,80.7,99.4,80.8z
			 M108.6,84.8c-0.1,0.2-0.2,0.3-0.3,0.5c-0.1,0.2-0.2,0.4-0.3,0.6c-0.1,0.2-0.2,0.4-0.2,0.7c-0.1,0.2-0.1,0.5-0.1,0.7
			c0,0.4-0.1,0.9,0,1.6c0,0.7,0,1.2,0,1.6c0,0.4-0.1,0.8-0.2,1.2c-0.1,0.4-0.1,0.6-0.1,0.6c0,0.1,0,0.1,0,0.1c0,0,0.1,0,0.2-0.1
			c0.1-0.1,0.1-0.2,0.2-0.3c0.1-0.2,0.2-0.5,0.4-0.9c0.2-0.5,0.3-1,0.3-1.6c0-0.3,0-0.6,0.1-1c0-0.4,0-0.8,0-1.3c0-0.1,0-0.2,0-0.3
			c0-0.1,0-0.3,0-0.5c0-0.2,0-0.3,0-0.5c0-0.2,0-0.3,0-0.5c0-0.2,0-0.3,0-0.4c0-0.1,0-0.2,0-0.2c0-0.1,0-0.1-0.1-0.1
			C108.7,84.7,108.6,84.7,108.6,84.8z M106.2,77.9c-0.2,0.2-0.3,0.4-0.5,0.7c-0.2,0.3-0.3,0.6-0.4,0.8c0,0.1,0.1,0,0.3-0.2
			c0.1-0.1,0.3-0.3,0.6-0.5c3.1-2.3,6.1-4.8,8.8-7.5c0.2-0.2,0.4-0.6,0.7-1.1c0.3-0.5,0.4-0.8,0.2-0.7
			C113.4,71.8,110.1,74.6,106.2,77.9z M92,79.5c-0.1,0-0.2,0.3-0.5,0.8c-0.2,0.5-0.4,0.8-0.4,1c0,0.1,0,0.2,0.1,0.2
			c0.1,0.1,0.3,0.2,0.5,0.4c0.2,0.2,0.4,0.2,0.4,0.2c0.1,0,0.3-0.2,0.5-0.6c0.2-0.4,0.3-0.7,0.3-0.9c0-0.2-0.2-0.4-0.4-0.7
			C92.4,79.5,92.2,79.4,92,79.5z M93,92.4c0.2-0.1,0.4-0.2,0.5-0.2c0.1-0.1,0.3-0.3,0.5-0.6c0.2-0.3,0.4-0.8,0.7-1.5
			c0.1-0.1,0.1-0.3,0.2-0.5c0-0.2,0.1-0.3,0.1-0.4c0-0.1,0-0.3,0.1-0.4c0-0.2,0-0.3,0-0.5c0-0.3-0.1-0.6-0.3-0.9
			c-0.2-0.2-0.4-0.4-0.7-0.4c-0.2,0-0.3,0.1-0.5,0.3c-0.2,0.2-0.3,0.5-0.5,0.8c-0.2,0.3-0.3,0.6-0.3,0.7c-0.1,0.2-0.1,0.3-0.1,0.4
			c0,0.2,0,0.4,0.2,0.5c0.2,0.2,0.4,0.2,0.6,0.2c0,0,0.1,0,0.1,0c0.1,0,0.1,0,0.1-0.1c0,0,0.1,0,0.1,0c0,0,0.1,0,0.1,0
			c-0.1,0.3-0.2,0.6-0.4,0.9c-0.2,0.3-0.4,0.4-0.6,0.6c-0.2,0.1-0.6,0.4-1.2,0.8C91.3,92.7,91,92.9,91,93c0,0,0,0,0.1,0
			c0.1,0,0.4-0.1,0.9-0.2C92.5,92.6,92.8,92.5,93,92.4z M107.4,79.2c0-0.1,0-0.1,0-0.1c0,0-0.1,0.1-0.2,0.1
			c-0.2,0.2-0.3,0.5-0.5,0.9c-0.2,0.4-0.3,0.7-0.3,0.8c-0.1,0.2-0.1,0.4-0.1,0.7c0,0.3-0.1,0.6-0.1,0.7l0,1.7c0,0.3-0.1,0.6-0.3,0.7
			c-0.2,0.2-0.4,0.3-0.7,0.3c-0.3,0-0.5-0.1-0.6-0.3c-0.1-0.2-0.2-0.6-0.2-1.3c0-0.2,0-0.4,0.1-0.6c0-0.2,0.1-0.5,0.2-1.1l0.4-2
			c0-0.1,0-0.2,0-0.2c0,0-0.1-0.1-0.1,0c-0.1,0.2-0.3,0.6-0.6,1.2c0,0.1-0.1,0.2-0.2,0.4c-0.1,0.2-0.2,0.4-0.3,0.7
			c-0.1,0.1-0.1,0.3-0.1,0.6c0,0.3-0.1,0.6-0.1,0.9c0,0.2-0.1,0.5-0.1,1c0,0.3,0,0.6,0,1l0,0.9c0,0.2-0.1,0.4-0.2,0.5
			c-0.1,0.1-0.2,0.2-0.2,0.2c-0.1,0.1-0.4,0.1-0.8,0.1c-0.5,0-0.9,0-1.4,0.1c-0.1,0-0.1,0-0.2,0c-0.1,0-0.2,0-0.2,0.1
			c-0.4,0.2-0.9,0.4-1.4,0.8c-0.5,0.4-1,0.8-1.5,1.5c-0.2,0.2-0.6,0.8-1.2,1.7c-0.2,0.3-0.3,0.5-0.5,0.8c-0.4,0.6-0.8,1.2-1.2,1.6
			c-0.4,0.5-0.9,0.9-1.3,1.2c-0.4,0.3-0.8,0.6-1.1,0.8c-0.3,0.2-0.5,0.4-0.6,0.5c-0.1,0.1-0.1,0.2-0.1,0.2c0.1,0.1,0.2,0.1,0.3,0
			c0.1,0,0.1,0,0.2-0.1c0,0,0.1,0,0.1,0c0.3-0.1,0.6-0.3,0.9-0.4c0.3-0.2,0.6-0.4,0.9-0.6c0.3-0.2,0.7-0.6,1.2-1.1
			c0.5-0.5,1-1.1,1.5-1.7c0.5-0.7,0.9-1.2,1.2-1.7c0.3-0.4,0.8-0.8,1.3-1.1c0.4-0.2,0.6-0.3,0.8-0.3c0.2-0.1,0.4-0.1,0.6-0.1
			c0.2,0,0.3,0,0.4,0c0.1,0,0.2,0,0.3,0c0.1,0,0.2,0,0.4,0c0.1,0,0.2,0,0.3-0.1c0.2-0.1,0.3-0.2,0.6-0.5c0.2-0.2,0.4-0.5,0.6-0.7
			c0.1-0.1,0.3-0.3,0.5-0.6c0.2-0.2,0.3-0.3,0.4-0.3c0.2,0.3,0.4,0.4,0.7,0.4c0.3,0,0.6-0.2,0.9-0.6c0.3-0.4,0.5-0.8,0.8-1.4
			c0.2-0.5,0.3-1,0.4-1.3c0.2-0.8,0.3-1.6,0.3-2.4c0-0.8,0-1.5,0.2-2.1C107.4,79.4,107.4,79.2,107.4,79.2z M122,85.5
			c0,0-0.1,0.1-0.2,0.3c-0.1,0.2-0.2,0.4-0.2,0.5c-0.1,0.1-0.2,0.1-0.3,0.1c-0.1,0-0.2-0.1-0.2,0c-0.2,0.6-0.4,0.8-0.6,0.8
			c0,0-0.1,0-0.2-0.1c-0.1,0-0.2,0.1-0.3,0.4c-0.2,0.3-0.3,0.4-0.6,0.4l-0.4-0.1c-0.1,0-0.3,0.1-0.5,0.2c-0.2,0.1-0.4,0.3-0.6,0.7
			c-0.3,0.4-0.7,0.6-1.2,0.6c-0.3,0-0.6-0.1-0.9-0.3c-0.3-0.3-0.5-0.8-0.5-1.5c0,0,0,0,0,0c0-0.1,0-0.2,0-0.4c0-0.3,0-0.6,0.1-1.1
			c0.1-0.9,0.1-1.5,0.2-1.9c0-0.1,0-0.2,0-0.2c-0.1,0-0.1,0-0.1,0.1l-0.4,1l-0.4,1c-0.1,0.1-0.1,0.4-0.1,0.7c0,0.4,0,0.7-0.1,0.9
			c0,0.2,0,0.4,0,0.7c0,1-0.1,1.6-0.1,1.8c0,0.2-0.1,0.4-0.1,0.5c-0.1,0.3-0.2,0.5-0.4,0.7c-0.2,0.2-0.4,0.2-0.7,0.2
			c-0.3,0-0.4-0.1-0.5-0.1c-0.2,0-0.3-0.1-0.4-0.1c-0.2,0-0.5,0.1-0.8,0.2c0,0,0,0,0,0c0,0,0,0,0,0c-0.4,0.2-0.8,0.5-1.1,0.9
			c-0.3,0.4-0.5,0.7-0.6,0.9c-0.1,0.2-0.1,0.3,0,0.3c0,0,0.1,0,0.2,0c0.5-0.3,1-0.4,1.6-0.4c0,0,0,0,0,0l0,0c0.1,0,0.3,0.1,0.6,0.1
			c0.2,0,0.5,0,0.8-0.1c0.3-0.1,0.6-0.3,0.9-0.6c0.2-0.3,0.4-0.6,0.6-0.9c0.3-0.5,0.4-0.8,0.5-0.8c0,0,0,0,0.1,0
			c0.3,0.4,0.6,0.6,1.1,0.6c0.5,0,1-0.3,1.4-1c0.4-0.7,0.7-1,1.1-1.2c0.1,0,0.3,0,0.5,0c0,0,0,0,0,0c0.2,0,0.5-0.3,1-0.8
			c0.1-0.1,0.3-0.1,0.4-0.2c0.1,0,0.3-0.1,0.4-0.3c0.1-0.1,0.3-0.3,0.5-0.4c0.2-0.1,0.3-0.4,0.4-0.6c0.1-0.3,0.2-0.6,0.3-0.9
			C122.1,85.7,122.1,85.6,122,85.5C122.1,85.5,122.1,85.5,122,85.5z M116.2,96c-0.1,0-0.2,0.3-0.5,0.8c-0.2,0.5-0.4,0.8-0.4,0.9
			c0,0.1,0,0.2,0.1,0.2c0.1,0.1,0.3,0.2,0.5,0.4c0.2,0.2,0.4,0.2,0.4,0.2c0.1,0,0.3-0.2,0.5-0.6c0.2-0.4,0.3-0.7,0.3-0.9
			c0-0.2-0.2-0.4-0.4-0.7C116.6,96.1,116.4,96,116.2,96z M127.4,87.7c0.1,0.1,0.2,0.1,0.2,0.1c0.2,0,0.5-0.4,0.9-1.1
			c0.2,0.1,0.3,0.3,0.5,0.5c0.2,0.2,0.3,0.3,0.4,0.3c0.1,0,0.3-0.2,0.5-0.5c0.3-0.4,0.4-0.7,0.4-0.9c0-0.2-0.1-0.5-0.4-0.7
			c-0.2-0.2-0.4-0.4-0.6-0.4c-0.1,0-0.2,0.1-0.3,0.4c-0.2,0.3-0.3,0.5-0.5,0.8c-0.1-0.2-0.3-0.4-0.5-0.6c-0.2-0.2-0.4-0.3-0.5-0.3
			c-0.1,0-0.2,0.3-0.5,0.8c-0.3,0.5-0.4,0.8-0.4,0.9c0,0,0.1,0.1,0.3,0.3C127.2,87.5,127.3,87.6,127.4,87.7z M146.7,78.3
			c0,0-0.2,0.2-0.4,0.5c-0.2,0.2-0.3,0.5-0.5,0.7c-0.1-0.2-0.3-0.4-0.5-0.6c-0.3-0.2-0.4-0.3-0.6-0.3c-0.1,0-0.3,0.3-0.6,0.8
			c-0.3,0.6-0.5,0.9-0.5,1c0,0,0.2,0.2,0.5,0.5c0.3,0.3,0.5,0.4,0.6,0.4c0.2,0,0.6-0.4,1-1.2c0.2,0.1,0.4,0.3,0.6,0.5
			c0.2,0.2,0.3,0.3,0.4,0.3c0.1,0,0.3-0.2,0.6-0.6c0.3-0.4,0.4-0.7,0.4-1c0-0.2-0.1-0.5-0.4-0.7C147.1,78.4,146.8,78.3,146.7,78.3z
			 M146.8,84.4c-0.1,0-0.1,0.1-0.2,0.2c-0.1,0.1-0.2,0.3-0.3,0.4c-0.2,0-0.4,0-0.6,0.1c-0.2,0.1-0.5,0.2-0.7,0.5
			c-0.2,0.3-0.4,0.5-0.5,0.6c-0.2,0.2-0.3,0.4-0.3,0.5c-0.2,0.2-0.3,0.3-0.5,0.3c0,0-0.1,0-0.4,0c-0.3,0-0.6,0-0.8,0.1
			c-0.1,0-0.1,0-0.2,0c-0.1,0-0.2,0-0.2,0.1c-0.4,0.2-0.9,0.4-1.4,0.8c-0.5,0.4-1,0.8-1.5,1.5c-0.2,0.2-0.6,0.8-1.2,1.7
			c-0.2,0.3-0.3,0.5-0.5,0.8c-0.4,0.6-0.8,1.2-1.2,1.6c-0.4,0.5-0.9,0.9-1.3,1.2c-0.4,0.3-0.8,0.6-1.1,0.8c-0.3,0.2-0.5,0.4-0.6,0.5
			c-0.1,0.1-0.1,0.2-0.1,0.2c0.1,0.1,0.2,0.1,0.3,0c0.1,0,0.1,0,0.2-0.1c0,0,0.1,0,0.1,0c0.3-0.1,0.6-0.3,0.9-0.4
			c0.3-0.2,0.6-0.4,0.9-0.6c0.3-0.2,0.7-0.6,1.2-1.1c0.5-0.5,1-1.1,1.5-1.7c0.5-0.7,0.9-1.2,1.2-1.7c0.3-0.4,0.8-0.8,1.3-1.1
			c0.4-0.2,0.6-0.3,0.8-0.3c0.2-0.1,0.4-0.1,0.6-0.1c0.2,0,0.3,0,0.4,0c0.4,0,0.7-0.1,0.9-0.3c0.2-0.2,0.6-0.8,1.2-1.8
			c0.2-0.3,0.3-0.4,0.5-0.5c0.1-0.1,0.3-0.2,0.4-0.2c0.1,0,0.3-0.1,0.4-0.1c0.2,0,0.5-0.4,0.8-1.1c0.1-0.3,0.1-0.4,0.1-0.5
			C146.9,84.4,146.9,84.3,146.8,84.4z M145.4,78.5c0.2,0.2,0.4,0.3,0.4,0.3c0.1,0,0.3-0.2,0.5-0.6c0.2-0.4,0.4-0.7,0.4-1
			c0-0.3-0.1-0.5-0.4-0.8c-0.3-0.2-0.5-0.4-0.7-0.4c-0.1,0-0.3,0.3-0.5,0.8c-0.3,0.5-0.4,0.9-0.4,0.9c0,0.1,0.1,0.2,0.2,0.2
			C145,78.2,145.2,78.3,145.4,78.5z M134,91c0.1-0.1,0.2-0.2,0.3-0.4c0.1-0.1,0.2-0.2,0.3-0.4c0.2-0.2,0.3-0.4,0.5-0.6
			c0.2-0.2,0.3-0.2,0.5-0.3c0.2,0,0.4-0.1,0.6-0.1c0,0,0.1,0,0.2,0c0.2,0,0.3-0.1,0.5-0.3c0.2-0.2,0.4-0.5,0.5-0.8
			c0.2-0.3,0.3-0.6,0.4-0.9c0.1-0.3,0.2-0.7,0.2-1.1c0-0.4,0.1-1.5,0.2-3.3c0-0.3,0-0.7,0.1-1c0-0.3,0-0.6,0-0.9c0-0.2,0-0.2,0-0.3
			c0-0.1-0.1-0.1-0.1,0l-0.4,1.1l-0.5,1.5l0,2.9c0,0.2,0,0.5-0.1,0.8c0,0.3-0.1,0.5-0.1,0.7c-0.1,0.3-0.2,0.4-0.4,0.3
			c-0.2-0.1-0.3-0.1-0.5-0.1h0c-0.3,0.1-0.6,0.2-0.8,0.4c-0.1,0.1-0.2,0.3-0.4,0.5c-0.2,0.2-0.3,0.3-0.3,0.4
			c-0.2,0.2-0.4,0.4-0.8,0.5c-0.3,0.2-0.7,0.3-1.2,0.5c-0.8,0.2-1.4,0.4-1.9,0.5c-0.5,0.1-1.2,0.1-2,0.2c-0.8,0-1.6,0-2.2,0
			c-0.8,0-1.4-0.1-1.8-0.2c-0.4-0.1-0.7-0.2-0.9-0.4c-0.2-0.2-0.3-0.4-0.3-0.7c0-0.3-0.1-0.5-0.2-0.5c-0.1,0-0.2,0.3-0.2,0.8
			c-0.1,0.5-0.1,0.9-0.1,1.4c0,0.7,0.2,1.2,0.7,1.5c0.3,0.2,0.7,0.3,1.3,0.3c0.5,0.1,1,0.1,1.6,0.1c1.5,0,2.9-0.1,4.1-0.4
			c1.2-0.3,2.2-0.7,2.8-1.1C133.6,91.4,133.8,91.2,134,91z M123.7,82.5c0.2,0.1,0.3,0.3,0.6,0.5c0.2,0.2,0.3,0.3,0.4,0.3
			c0.1,0,0.3-0.2,0.5-0.5c0.2-0.4,0.4-0.7,0.4-1c0-0.2-0.1-0.5-0.4-0.7c-0.3-0.2-0.5-0.4-0.6-0.4c0,0-0.2,0.2-0.4,0.5
			c-0.1,0.2-0.3,0.5-0.4,0.7c-0.1-0.2-0.2-0.4-0.5-0.6c-0.2-0.2-0.4-0.3-0.5-0.3c-0.1,0-0.3,0.3-0.5,0.8c-0.3,0.5-0.4,0.9-0.4,0.9
			c0,0,0.2,0.2,0.5,0.5c0.3,0.3,0.5,0.4,0.6,0.4C123,83.7,123.3,83.3,123.7,82.5z"/>
	</g>
</g>
</svg>
